999
DXF created by Inkscape
  0
SECTION
  2
HEADER
  9
$ACADVER
  1
AC1014
  9
$HANDSEED
  5
FFFF
  9
$MEASUREMENT
 70
     1
  0
ENDSEC
  0
SECTION
  2
TABLES
  0
TABLE
  2
VPORT
  5
8
330
0
100
AcDbSymbolTable
 70
     4
  0
VPORT
  5
2E
330
8
100
AcDbSymbolTableRecord
100
AcDbViewportTableRecord
  2
*ACTIVE
 70
     0
 10
0.0
 20
0.0
 11
1.0
 21
1.0
 12
210.0
 22
148.5
 13
0.0
 23
0.0
 14
10.0
 24
10.0
 15
10.0
 25
10.0
 16
0.0
 26
0.0
 36
1.0
 17
0.0
 27
0.0
 37
0.0
 40
341.0
 41
1.24
 42
50.0
 43
0.0
 44
0.0
 50
0.0
 51
0.0
 71
     0
 72
   100
 73
     1
 74
     3
 75
     0
 76
     0
 77
     0
 78
     0
  0
ENDTAB
  0
TABLE
  2
LTYPE
  5
5
330
0
100
AcDbSymbolTable
 70
     1
  0
LTYPE
  5
14
330
5
100
AcDbSymbolTableRecord
100
AcDbLinetypeTableRecord
  2
BYBLOCK
 70
     0
  3

 72
    65
 73
     0
 40
0.0
  0
LTYPE
  5
15
330
5
100
AcDbSymbolTableRecord
100
AcDbLinetypeTableRecord
  2
BYLAYER
 70
     0
  3

 72
    65
 73
     0
 40
0.0
  0
LTYPE
  5
16
330
5
100
AcDbSymbolTableRecord
100
AcDbLinetypeTableRecord
  2
CONTINUOUS
 70
     0
  3
Solid line
 72
    65
 73
     0
 40
0.0
  0
ENDTAB
  0
TABLE
  2
LAYER
  5
2
100
AcDbSymbolTable
 70
2
  0
LAYER
  5
50
100
AcDbSymbolTableRecord
100
AcDbLayerTableRecord
  2
0
 70
0
  6
CONTINUOUS
  0
LAYER
  5
51
100
AcDbSymbolTableRecord
100
AcDbLayerTableRecord
  2
Layer_1
 70
0
  6
CONTINUOUS
  0
ENDTAB
  0
TABLE
  2
STYLE
  5
3
330
0
100
AcDbSymbolTable
 70
     1
  0
STYLE
  5
11
330
3
100
AcDbSymbolTableRecord
100
AcDbTextStyleTableRecord
  2
STANDARD
 70
     0
 40
0.0
 41
1.0
 50
0.0
 71
     0
 42
2.5
  3
txt
  4

  0
ENDTAB
  0
TABLE
  2
VIEW
  5
6
330
0
100
AcDbSymbolTable
 70
     0
  0
ENDTAB
  0
TABLE
  2
UCS
  5
7
330
0
100
AcDbSymbolTable
 70
     0
  0
ENDTAB
  0
TABLE
  2
APPID
  5
9
330
0
100
AcDbSymbolTable
 70
     2
  0
APPID
  5
12
330
9
100
AcDbSymbolTableRecord
100
AcDbRegAppTableRecord
  2
ACAD
 70
     0
  0
ENDTAB
  0
TABLE
  2
DIMSTYLE
  5
A
330
0
100
AcDbSymbolTable
 70
     1
  0
DIMSTYLE
105
27
330
A
100
AcDbSymbolTableRecord
100
AcDbDimStyleTableRecord
  2
ISO-25
 70
     0
  3

  4

  5

  6

  7

 40
1.0
 41
2.5
 42
0.625
 43
3.75
 44
1.25
 45
0.0
 46
0.0
 47
0.0
 48
0.0
140
2.5
141
2.5
142
0.0
143
0.03937007874016
144
1.0
145
0.0
146
1.0
147
0.625
 71
     0
 72
     0
 73
     0
 74
     0
 75
     0
 76
     0
 77
     1
 78
     8
170
     0
171
     3
172
     1
173
     0
174
     0
175
     0
176
     0
177
     0
178
     0
270
     2
271
     2
272
     2
273
     2
274
     3
340
11
275
     0
280
     0
281
     0
282
     0
283
     0
284
     8
285
     0
286
     0
287
     3
288
     0
  0
ENDTAB
  0
TABLE
  2
BLOCK_RECORD
  5
1
330
0
100
AcDbSymbolTable
 70
     1
  0
BLOCK_RECORD
  5
1F
330
1
100
AcDbSymbolTableRecord
100
AcDbBlockTableRecord
  2
*MODEL_SPACE
  0
BLOCK_RECORD
  5
1B
330
1
100
AcDbSymbolTableRecord
100
AcDbBlockTableRecord
  2
*PAPER_SPACE
  0
ENDTAB
  0
ENDSEC
  0
SECTION
  2
BLOCKS
  0
BLOCK
  5
20
330
1F
100
AcDbEntity
  8
0
100
AcDbBlockBegin
  2
*MODEL_SPACE
 70
     0
 10
0.0
 20
0.0
 30
0.0
  3
*MODEL_SPACE
  1

  0
ENDBLK
  5
21
330
1F
100
AcDbEntity
  8
0
100
AcDbBlockEnd
  0
BLOCK
  5
1C
330
1B
100
AcDbEntity
 67
     1
  8
0
100
AcDbBlockBegin
  2
*PAPER_SPACE
  1

  0
ENDBLK
  5
1D
330
1B
100
AcDbEntity
 67
     1
  8
0
100
AcDbBlockEnd
  0
ENDSEC
  0
SECTION
  2
ENTITIES
  0
LWPOLYLINE
  5
100
100
AcDbEntity
  8
Layer_1
 62
7
100
AcDbPolyline
 90
225
 70
0
 10
14.327189
 20
-0.000001
 30
0.0
 10
12.680157
 20
-0.000001
 30
0.0
 10
11.033126
 20
-0.000001
 30
0.0
 10
9.386095
 20
-0.000001
 30
0.0
 10
7.739064
 20
-0.000001
 30
0.0
 10
7.739064
 20
0.176113
 30
0.0
 10
7.739064
 20
0.352226
 30
0.0
 10
7.739064
 20
0.528339
 30
0.0
 10
7.739064
 20
0.704453
 30
0.0
 10
8.126012
 20
0.721194
 30
0.0
 10
8.473276
 20
0.751580
 30
0.0
 10
8.780856
 20
0.795608
 30
0.0
 10
9.048751
 20
0.853280
 30
0.0
 10
9.270128
 20
0.931414
 30
0.0
 10
9.428256
 20
1.026912
 30
0.0
 10
9.523135
 20
1.139773
 30
0.0
 10
9.554767
 20
1.269998
 30
0.0
 10
9.540498
 20
1.364255
 30
0.0
 10
9.497708
 20
1.498200
 30
0.0
 10
9.426396
 20
1.671834
 30
0.0
 10
9.326562
 20
1.885155
 30
0.0
 10
9.204394
 20
2.125139
 30
0.0
 10
9.066106
 20
2.378766
 30
0.0
 10
8.911699
 20
2.646037
 30
0.0
 10
8.741172
 20
2.926952
 30
0.0
 10
8.533428
 20
3.258092
 30
0.0
 10
8.307084
 20
3.616519
 30
0.0
 10
8.062139
 20
4.002233
 30
0.0
 10
7.798594
 20
4.415233
 30
0.0
 10
7.526358
 20
4.841870
 30
0.0
 10
7.255366
 20
5.258588
 30
0.0
 10
6.985616
 20
5.665386
 30
0.0
 10
6.717110
 20
6.062264
 30
0.0
 10
6.265661
 20
5.457027
 30
0.0
 10
5.784449
 20
4.792260
 30
0.0
 10
5.273473
 20
4.067965
 30
0.0
 10
4.732735
 20
3.284139
 30
0.0
 10
4.246560
 20
2.558601
 30
0.0
 10
3.899294
 20
1.999255
 30
0.0
 10
3.690936
 20
1.606101
 30
0.0
 10
3.621485
 20
1.379139
 30
0.0
 10
3.640086
 20
1.225969
 30
0.0
 10
3.695896
 20
1.093884
 30
0.0
 10
3.788914
 20
0.982883
 30
0.0
 10
3.919141
 20
0.892967
 30
0.0
 10
4.118196
 20
0.825374
 30
0.0
 10
4.407790
 20
0.771423
 30
0.0
 10
4.787922
 20
0.731116
 30
0.0
 10
5.258594
 20
0.704452
 30
0.0
 10
5.258594
 20
0.528339
 30
0.0
 10
5.258594
 20
0.352225
 30
0.0
 10
5.258594
 20
0.176112
 30
0.0
 10
5.258594
 20
-0.000001
 30
0.0
 10
3.943945
 20
-0.000001
 30
0.0
 10
2.629297
 20
-0.000001
 30
0.0
 10
1.314648
 20
-0.000001
 30
0.0
 10
0.000000
 20
-0.000001
 30
0.0
 10
0.000000
 20
0.176112
 30
0.0
 10
0.000000
 20
0.352225
 30
0.0
 10
0.000000
 20
0.528339
 30
0.0
 10
0.000000
 20
0.704452
 30
0.0
 10
0.137666
 20
0.716235
 30
0.0
 10
0.292695
 20
0.731737
 30
0.0
 10
0.465088
 20
0.750962
 30
0.0
 10
0.654844
 20
0.773907
 30
0.0
 10
0.848940
 20
0.808013
 30
0.0
 10
1.024433
 20
0.850801
 30
0.0
 10
1.181323
 20
0.902270
 30
0.0
 10
1.319610
 20
0.962422
 30
0.0
 10
1.564555
 20
1.103808
 30
0.0
 10
1.783456
 20
1.250156
 30
0.0
 10
1.976312
 20
1.401464
 30
0.0
 10
2.143125
 20
1.557735
 30
0.0
 10
2.301874
 20
1.728266
 30
0.0
 10
2.460623
 20
1.912441
 30
0.0
 10
2.619374
 20
2.110258
 30
0.0
 10
2.778125
 20
2.321719
 30
0.0
 10
3.117948
 20
2.784944
 30
0.0
 10
3.502420
 20
3.301501
 30
0.0
 10
3.931541
 20
3.871390
 30
0.0
 10
4.405313
 20
4.494610
 30
0.0
 10
4.887141
 20
5.134568
 30
0.0
 10
5.340445
 20
5.744762
 30
0.0
 10
5.765227
 20
6.325192
 30
0.0
 10
6.161485
 20
6.875860
 30
0.0
 10
5.853903
 20
7.325440
 30
0.0
 10
5.506636
 20
7.830834
 30
0.0
 10
5.119684
 20
8.392042
 30
0.0
 10
4.693048
 20
9.009062
 30
0.0
 10
4.239120
 20
9.670101
 30
0.0
 10
3.770311
 20
10.353468
 30
0.0
 10
3.286620
 20
11.059163
 30
0.0
 10
2.788048
 20
11.787187
 30
0.0
 10
2.585888
 20
12.076775
 30
0.0
 10
2.406054
 20
12.320479
 30
0.0
 10
2.248545
 20
12.518298
 30
0.0
 10
2.113361
 20
12.670234
 30
0.0
 10
1.983755
 20
12.794870
 30
0.0
 10
1.833066
 20
12.910830
 30
0.0
 10
1.661294
 20
13.018112
 30
0.0
 10
1.468439
 20
13.116718
 30
0.0
 10
1.337593
 20
13.168181
 30
0.0
 10
1.183184
 20
13.213447
 30
0.0
 10
1.005211
 20
13.252516
 30
0.0
 10
0.803673
 20
13.285390
 30
0.0
 10
0.605855
 20
13.317009
 30
0.0
 10
0.429122
 20
13.342431
 30
0.0
 10
0.273473
 20
13.361657
 30
0.0
 10
0.138908
 20
13.374687
 30
0.0
 10
0.138908
 20
13.550800
 30
0.0
 10
0.138908
 20
13.726913
 30
0.0
 10
0.138908
 20
13.903027
 30
0.0
 10
0.138908
 20
14.079140
 30
0.0
 10
1.768575
 20
14.079140
 30
0.0
 10
3.398243
 20
14.079140
 30
0.0
 10
5.027911
 20
14.079140
 30
0.0
 10
6.657579
 20
14.079140
 30
0.0
 10
6.657579
 20
13.903027
 30
0.0
 10
6.657579
 20
13.726913
 30
0.0
 10
6.657579
 20
13.550800
 30
0.0
 10
6.657579
 20
13.374687
 30
0.0
 10
6.366741
 20
13.357936
 30
0.0
 10
6.069704
 20
13.327548
 30
0.0
 10
5.766467
 20
13.283522
 30
0.0
 10
5.457033
 20
13.225859
 30
0.0
 10
5.187899
 20
13.157638
 30
0.0
 10
4.995662
 20
13.072060
 30
0.0
 10
4.880321
 20
12.969123
 30
0.0
 10
4.841876
 20
12.848827
 30
0.0
 10
4.857376
 20
12.736579
 30
0.0
 10
4.903884
 20
12.588369
 30
0.0
 10
4.981399
 20
12.404196
 30
0.0
 10
5.089923
 20
12.184062
 30
0.0
 10
5.219524
 20
11.946550
 30
0.0
 10
5.360290
 20
11.700362
 30
0.0
 10
5.512219
 20
11.445496
 30
0.0
 10
5.675313
 20
11.181952
 30
0.0
 10
5.853904
 20
10.896693
 30
0.0
 10
6.042418
 20
10.596554
 30
0.0
 10
6.240856
 20
10.281536
 30
0.0
 10
6.449219
 20
9.951640
 30
0.0
 10
6.674318
 20
9.601268
 30
0.0
 10
6.922984
 20
9.224856
 30
0.0
 10
7.195216
 20
8.822401
 30
0.0
 10
7.491016
 20
8.393906
 30
0.0
 10
8.032374
 20
9.134320
 30
0.0
 10
8.535287
 20
9.837531
 30
0.0
 10
8.999757
 20
10.503539
 30
0.0
 10
9.425782
 20
11.132343
 30
0.0
 10
9.781725
 20
11.689201
 30
0.0
 10
10.035971
 20
12.139403
 30
0.0
 10
10.188521
 20
12.482951
 30
0.0
 10
10.239376
 20
12.719843
 30
0.0
 10
10.215804
 20
12.868044
 30
0.0
 10
10.145109
 20
12.995165
 30
0.0
 10
10.027289
 20
13.101208
 30
0.0
 10
9.862343
 20
13.186171
 30
0.0
 10
9.646537
 20
13.253756
 30
0.0
 10
9.366242
 20
13.307704
 30
0.0
 10
9.021459
 20
13.348014
 30
0.0
 10
8.612187
 20
13.374687
 30
0.0
 10
8.612187
 20
13.550800
 30
0.0
 10
8.612187
 20
13.726913
 30
0.0
 10
8.612187
 20
13.903027
 30
0.0
 10
8.612187
 20
14.079140
 30
0.0
 10
9.924355
 20
14.079140
 30
0.0
 10
11.236523
 20
14.079140
 30
0.0
 10
12.548691
 20
14.079140
 30
0.0
 10
13.860859
 20
14.079140
 30
0.0
 10
13.860859
 20
13.903027
 30
0.0
 10
13.860859
 20
13.726913
 30
0.0
 10
13.860859
 20
13.550800
 30
0.0
 10
13.860859
 20
13.374687
 30
0.0
 10
13.726906
 20
13.365998
 30
0.0
 10
13.573114
 20
13.349872
 30
0.0
 10
13.399484
 20
13.326310
 30
0.0
 10
13.206015
 20
13.295312
 30
0.0
 10
13.015632
 20
13.261818
 30
0.0
 10
12.841376
 20
13.220888
 30
0.0
 10
12.683249
 20
13.172521
 30
0.0
 10
12.541249
 20
13.116718
 30
0.0
 10
12.299397
 20
12.990207
 30
0.0
 10
12.089795
 20
12.858740
 30
0.0
 10
11.912444
 20
12.722316
 30
0.0
 10
11.767343
 20
12.580937
 30
0.0
 10
11.632151
 20
12.420940
 30
0.0
 10
11.474639
 20
12.228701
 30
0.0
 10
11.294808
 20
12.004221
 30
0.0
 10
11.092656
 20
11.747499
 30
0.0
 10
10.703216
 20
11.243958
 30
0.0
 10
10.328664
 20
10.755304
 30
0.0
 10
9.968998
 20
10.281536
 30
0.0
 10
9.624218
 20
9.822656
 30
0.0
 10
9.274467
 20
9.351362
 30
0.0
 10
8.889993
 20
8.830461
 30
0.0
 10
8.470795
 20
8.259955
 30
0.0
 10
8.016874
 20
7.639843
 30
0.0
 10
8.424907
 20
7.055069
 30
0.0
 10
8.855266
 20
6.431850
 30
0.0
 10
9.307953
 20
5.770186
 30
0.0
 10
9.782968
 20
5.070078
 30
0.0
 10
10.268514
 20
4.358801
 30
0.0
 10
10.742901
 20
3.663649
 30
0.0
 10
11.206131
 20
2.984622
 30
0.0
 10
11.658203
 20
2.321718
 30
0.0
 10
11.817566
 20
2.100955
 30
0.0
 10
11.988096
 20
1.885154
 30
0.0
 10
12.169792
 20
1.674315
 30
0.0
 10
12.362656
 20
1.468437
 30
0.0
 10
12.551785
 20
1.285502
 30
0.0
 10
12.722314
 20
1.133573
 30
0.0
 10
12.874245
 20
1.012650
 30
0.0
 10
13.007578
 20
0.922734
 30
0.0
 10
13.136555
 20
0.859481
 30
0.0
 10
13.285380
 20
0.808632
 30
0.0
 10
13.454054
 20
0.770185
 30
0.0
 10
13.642578
 20
0.744141
 30
0.0
 10
13.837907
 20
0.730499
 30
0.0
 10
14.017118
 20
0.719337
 30
0.0
 10
14.180211
 20
0.710656
 30
0.0
 10
14.327187
 20
0.704455
 30
0.0
 10
14.327187
 20
0.528342
 30
0.0
 10
14.327187
 20
0.352228
 30
0.0
 10
14.327187
 20
0.176115
 30
0.0
 10
14.327187
 20
0.000002
 30
0.0
  0
ENDSEC
  0
SECTION
  2
OBJECTS
  0
DICTIONARY
  5
C
330
0
100
AcDbDictionary
  3
ACAD_GROUP
350
D
  3
ACAD_MLINESTYLE
350
17
  0
DICTIONARY
  5
D
330
C
100
AcDbDictionary
  0
DICTIONARY
  5
1A
330
C
100
AcDbDictionary
  0
DICTIONARY
  5
17
330
C
100
AcDbDictionary
  3
STANDARD
350
18
  0
DICTIONARY
  5
19
330
C
100
AcDbDictionary
  0
ENDSEC
  0
EOF
