999
DXF created by Inkscape
  0
SECTION
  2
HEADER
  9
$ACADVER
  1
AC1014
  9
$HANDSEED
  5
FFFF
  9
$MEASUREMENT
 70
     1
  0
ENDSEC
  0
SECTION
  2
TABLES
  0
TABLE
  2
VPORT
  5
8
330
0
100
AcDbSymbolTable
 70
     4
  0
VPORT
  5
2E
330
8
100
AcDbSymbolTableRecord
100
AcDbViewportTableRecord
  2
*ACTIVE
 70
     0
 10
0.0
 20
0.0
 11
1.0
 21
1.0
 12
210.0
 22
148.5
 13
0.0
 23
0.0
 14
10.0
 24
10.0
 15
10.0
 25
10.0
 16
0.0
 26
0.0
 36
1.0
 17
0.0
 27
0.0
 37
0.0
 40
341.0
 41
1.24
 42
50.0
 43
0.0
 44
0.0
 50
0.0
 51
0.0
 71
     0
 72
   100
 73
     1
 74
     3
 75
     0
 76
     0
 77
     0
 78
     0
  0
ENDTAB
  0
TABLE
  2
LTYPE
  5
5
330
0
100
AcDbSymbolTable
 70
     1
  0
LTYPE
  5
14
330
5
100
AcDbSymbolTableRecord
100
AcDbLinetypeTableRecord
  2
BYBLOCK
 70
     0
  3

 72
    65
 73
     0
 40
0.0
  0
LTYPE
  5
15
330
5
100
AcDbSymbolTableRecord
100
AcDbLinetypeTableRecord
  2
BYLAYER
 70
     0
  3

 72
    65
 73
     0
 40
0.0
  0
LTYPE
  5
16
330
5
100
AcDbSymbolTableRecord
100
AcDbLinetypeTableRecord
  2
CONTINUOUS
 70
     0
  3
Solid line
 72
    65
 73
     0
 40
0.0
  0
ENDTAB
  0
TABLE
  2
LAYER
  5
2
100
AcDbSymbolTable
 70
2
  0
LAYER
  5
50
100
AcDbSymbolTableRecord
100
AcDbLayerTableRecord
  2
0
 70
0
  6
CONTINUOUS
  0
LAYER
  5
51
100
AcDbSymbolTableRecord
100
AcDbLayerTableRecord
  2
Layer_1
 70
0
  6
CONTINUOUS
  0
ENDTAB
  0
TABLE
  2
STYLE
  5
3
330
0
100
AcDbSymbolTable
 70
     1
  0
STYLE
  5
11
330
3
100
AcDbSymbolTableRecord
100
AcDbTextStyleTableRecord
  2
STANDARD
 70
     0
 40
0.0
 41
1.0
 50
0.0
 71
     0
 42
2.5
  3
txt
  4

  0
ENDTAB
  0
TABLE
  2
VIEW
  5
6
330
0
100
AcDbSymbolTable
 70
     0
  0
ENDTAB
  0
TABLE
  2
UCS
  5
7
330
0
100
AcDbSymbolTable
 70
     0
  0
ENDTAB
  0
TABLE
  2
APPID
  5
9
330
0
100
AcDbSymbolTable
 70
     2
  0
APPID
  5
12
330
9
100
AcDbSymbolTableRecord
100
AcDbRegAppTableRecord
  2
ACAD
 70
     0
  0
ENDTAB
  0
TABLE
  2
DIMSTYLE
  5
A
330
0
100
AcDbSymbolTable
 70
     1
  0
DIMSTYLE
105
27
330
A
100
AcDbSymbolTableRecord
100
AcDbDimStyleTableRecord
  2
ISO-25
 70
     0
  3

  4

  5

  6

  7

 40
1.0
 41
2.5
 42
0.625
 43
3.75
 44
1.25
 45
0.0
 46
0.0
 47
0.0
 48
0.0
140
2.5
141
2.5
142
0.0
143
0.03937007874016
144
1.0
145
0.0
146
1.0
147
0.625
 71
     0
 72
     0
 73
     0
 74
     0
 75
     0
 76
     0
 77
     1
 78
     8
170
     0
171
     3
172
     1
173
     0
174
     0
175
     0
176
     0
177
     0
178
     0
270
     2
271
     2
272
     2
273
     2
274
     3
340
11
275
     0
280
     0
281
     0
282
     0
283
     0
284
     8
285
     0
286
     0
287
     3
288
     0
  0
ENDTAB
  0
TABLE
  2
BLOCK_RECORD
  5
1
330
0
100
AcDbSymbolTable
 70
     1
  0
BLOCK_RECORD
  5
1F
330
1
100
AcDbSymbolTableRecord
100
AcDbBlockTableRecord
  2
*MODEL_SPACE
  0
BLOCK_RECORD
  5
1B
330
1
100
AcDbSymbolTableRecord
100
AcDbBlockTableRecord
  2
*PAPER_SPACE
  0
ENDTAB
  0
ENDSEC
  0
SECTION
  2
BLOCKS
  0
BLOCK
  5
20
330
1F
100
AcDbEntity
  8
0
100
AcDbBlockBegin
  2
*MODEL_SPACE
 70
     0
 10
0.0
 20
0.0
 30
0.0
  3
*MODEL_SPACE
  1

  0
ENDBLK
  5
21
330
1F
100
AcDbEntity
  8
0
100
AcDbBlockEnd
  0
BLOCK
  5
1C
330
1B
100
AcDbEntity
 67
     1
  8
0
100
AcDbBlockBegin
  2
*PAPER_SPACE
  1

  0
ENDBLK
  5
1D
330
1B
100
AcDbEntity
 67
     1
  8
0
100
AcDbBlockEnd
  0
ENDSEC
  0
SECTION
  2
ENTITIES
  0
LWPOLYLINE
  5
100
100
AcDbEntity
  8
Layer_1
 62
7
100
AcDbPolyline
 90
197
 70
0
 10
13.473906
 20
13.374687
 30
0.0
 10
13.377161
 20
13.362277
 30
0.0
 10
13.255615
 20
13.334990
 30
0.0
 10
13.109270
 20
13.292824
 30
0.0
 10
12.938125
 20
13.235781
 30
0.0
 10
12.767586
 20
13.176243
 30
0.0
 10
12.623096
 20
13.116709
 30
0.0
 10
12.504656
 20
13.057180
 30
0.0
 10
12.412266
 20
12.997656
 30
0.0
 10
12.234286
 20
12.885408
 30
0.0
 10
12.087316
 20
12.786807
 30
0.0
 10
11.971356
 20
12.701853
 30
0.0
 10
11.886406
 20
12.630547
 30
0.0
 10
11.800824
 20
12.540003
 30
0.0
 10
11.683000
 20
12.397373
 30
0.0
 10
11.532933
 20
12.202659
 30
0.0
 10
11.350625
 20
11.955859
 30
0.0
 10
10.971108
 20
11.408290
 30
0.0
 10
10.606477
 20
10.857004
 30
0.0
 10
10.256733
 20
10.302001
 30
0.0
 10
9.921875
 20
9.743281
 30
0.0
 10
9.573987
 20
9.144862
 30
0.0
 10
9.185171
 20
8.470793
 30
0.0
 10
8.755431
 20
7.721074
 30
0.0
 10
8.284766
 20
6.895703
 30
0.0
 10
8.116710
 20
6.593702
 30
0.0
 10
7.979662
 20
6.322710
 30
0.0
 10
7.873624
 20
6.082726
 30
0.0
 10
7.798594
 20
5.873750
 30
0.0
 10
7.746500
 20
5.658566
 30
0.0
 10
7.709291
 20
5.399976
 30
0.0
 10
7.686968
 20
5.097980
 30
0.0
 10
7.679531
 20
4.752578
 30
0.0
 10
7.679531
 20
4.080371
 30
0.0
 10
7.679531
 20
3.408164
 30
0.0
 10
7.679531
 20
2.735957
 30
0.0
 10
7.679531
 20
2.063750
 30
0.0
 10
7.688209
 20
1.890736
 30
0.0
 10
7.714253
 20
1.728885
 30
0.0
 10
7.757663
 20
1.578197
 30
0.0
 10
7.818438
 20
1.438672
 30
0.0
 10
7.905250
 20
1.315888
 30
0.0
 10
8.016870
 20
1.205507
 30
0.0
 10
8.153297
 20
1.107528
 30
0.0
 10
8.314532
 20
1.021953
 30
0.0
 10
8.439171
 20
0.979785
 30
0.0
 10
8.604741
 20
0.932656
 30
0.0
 10
8.811241
 20
0.880566
 30
0.0
 10
9.058673
 20
0.823516
 30
0.0
 10
9.313536
 20
0.775146
 30
0.0
 10
9.542357
 20
0.739179
 30
0.0
 10
9.745137
 20
0.715614
 30
0.0
 10
9.921876
 20
0.704452
 30
0.0
 10
9.921876
 20
0.528338
 30
0.0
 10
9.921876
 20
0.352225
 30
0.0
 10
9.921876
 20
0.176112
 30
0.0
 10
9.921876
 20
-0.000002
 30
0.0
 10
8.274844
 20
-0.000002
 30
0.0
 10
6.627813
 20
-0.000002
 30
0.0
 10
4.980782
 20
-0.000002
 30
0.0
 10
3.333751
 20
-0.000002
 30
0.0
 10
3.333751
 20
0.176112
 30
0.0
 10
3.333751
 20
0.352225
 30
0.0
 10
3.333751
 20
0.528338
 30
0.0
 10
3.333751
 20
0.704452
 30
0.0
 10
3.490018
 20
0.716234
 30
0.0
 10
3.681014
 20
0.731737
 30
0.0
 10
3.906737
 20
0.750962
 30
0.0
 10
4.167188
 20
0.773907
 30
0.0
 10
4.423914
 20
0.805532
 30
0.0
 10
4.638474
 20
0.840878
 30
0.0
 10
4.810867
 20
0.879946
 30
0.0
 10
4.941094
 20
0.922735
 30
0.0
 10
5.105423
 20
1.003969
 30
0.0
 10
5.241227
 20
1.098847
 30
0.0
 10
5.348509
 20
1.207368
 30
0.0
 10
5.427266
 20
1.329532
 30
0.0
 10
5.488035
 20
1.465956
 30
0.0
 10
5.531442
 20
1.617265
 30
0.0
 10
5.557488
 20
1.783456
 30
0.0
 10
5.566172
 20
1.964532
 30
0.0
 10
5.566172
 20
2.820293
 30
0.0
 10
5.566172
 20
3.676055
 30
0.0
 10
5.566172
 20
4.531817
 30
0.0
 10
5.566172
 20
5.387578
 30
0.0
 10
5.553766
 20
5.483073
 30
0.0
 10
5.516559
 20
5.610816
 30
0.0
 10
5.454548
 20
5.770807
 30
0.0
 10
5.367735
 20
5.963047
 30
0.0
 10
5.268513
 20
6.181945
 30
0.0
 10
5.159372
 20
6.412007
 30
0.0
 10
5.040310
 20
6.653233
 30
0.0
 10
4.911328
 20
6.905625
 30
0.0
 10
4.605608
 20
7.492871
 30
0.0
 10
4.283767
 20
8.103685
 30
0.0
 10
3.945804
 20
8.738066
 30
0.0
 10
3.591719
 20
9.396015
 30
0.0
 10
3.241351
 20
10.041552
 30
0.0
 10
2.914549
 20
10.638722
 30
0.0
 10
2.611312
 20
11.187528
 30
0.0
 10
2.331641
 20
11.687969
 30
0.0
 10
2.172270
 20
11.953372
 30
0.0
 10
2.021581
 20
12.184053
 30
0.0
 10
1.879574
 20
12.380012
 30
0.0
 10
1.746250
 20
12.541250
 30
0.0
 10
1.617265
 20
12.680769
 30
0.0
 10
1.478359
 20
12.811611
 30
0.0
 10
1.329531
 20
12.933777
 30
0.0
 10
1.170781
 20
13.047265
 30
0.0
 10
1.045517
 20
13.117331
 30
0.0
 10
0.907851
 20
13.178720
 30
0.0
 10
0.757783
 20
13.231433
 30
0.0
 10
0.595312
 20
13.275469
 30
0.0
 10
0.435322
 20
13.311428
 30
0.0
 10
0.282774
 20
13.339951
 30
0.0
 10
0.137666
 20
13.361037
 30
0.0
 10
-0.000000
 20
13.374687
 30
0.0
 10
-0.000000
 20
13.550801
 30
0.0
 10
-0.000000
 20
13.726914
 30
0.0
 10
-0.000000
 20
13.903027
 30
0.0
 10
-0.000000
 20
14.079141
 30
0.0
 10
1.500684
 20
14.079141
 30
0.0
 10
3.001367
 20
14.079141
 30
0.0
 10
4.502051
 20
14.079141
 30
0.0
 10
6.002735
 20
14.079141
 30
0.0
 10
6.002735
 20
13.903027
 30
0.0
 10
6.002735
 20
13.726914
 30
0.0
 10
6.002735
 20
13.550801
 30
0.0
 10
6.002735
 20
13.374687
 30
0.0
 10
5.533923
 20
13.358557
 30
0.0
 10
5.139528
 20
13.330029
 30
0.0
 10
4.819548
 20
13.289104
 30
0.0
 10
4.573985
 20
13.235781
 30
0.0
 10
4.391668
 20
13.170042
 30
0.0
 10
4.261443
 20
13.091904
 30
0.0
 10
4.183309
 20
13.001370
 30
0.0
 10
4.157265
 20
12.898438
 30
0.0
 10
4.160985
 20
12.863084
 30
0.0
 10
4.172147
 20
12.816572
 30
0.0
 10
4.190751
 20
12.758904
 30
0.0
 10
4.216797
 20
12.690078
 30
0.0
 10
4.249661
 20
12.610696
 30
0.0
 10
4.288728
 20
12.521397
 30
0.0
 10
4.333997
 20
12.422181
 30
0.0
 10
4.385469
 20
12.313047
 30
0.0
 10
4.453059
 20
12.179095
 30
0.0
 10
4.526853
 20
12.035225
 30
0.0
 10
4.606849
 20
11.881439
 30
0.0
 10
4.693047
 20
11.717734
 30
0.0
 10
4.781101
 20
11.555257
 30
0.0
 10
4.866676
 20
11.395265
 30
0.0
 10
4.949773
 20
11.237757
 30
0.0
 10
5.030391
 20
11.082734
 30
0.0
 10
5.264792
 20
10.641205
 30
0.0
 10
5.501676
 20
10.199680
 30
0.0
 10
5.741042
 20
9.758158
 30
0.0
 10
5.982891
 20
9.316641
 30
0.0
 10
6.244577
 20
8.846587
 30
0.0
 10
6.543472
 20
8.309564
 30
0.0
 10
6.879577
 20
7.705572
 30
0.0
 10
7.252891
 20
7.034610
 30
0.0
 10
7.985245
 20
8.220269
 30
0.0
 10
8.624584
 20
9.267024
 30
0.0
 10
9.170908
 20
10.174877
 30
0.0
 10
9.624219
 20
10.943828
 30
0.0
 10
9.984502
 20
11.577581
 30
0.0
 10
10.241848
 20
12.069952
 30
0.0
 10
10.396259
 20
12.420940
 30
0.0
 10
10.447735
 20
12.630547
 30
0.0
 10
10.437188
 20
12.739060
 30
0.0
 10
10.405560
 20
12.836416
 30
0.0
 10
10.352852
 20
12.922615
 30
0.0
 10
10.279064
 20
12.997656
 30
0.0
 10
10.187901
 20
13.063381
 30
0.0
 10
10.083099
 20
13.121670
 30
0.0
 10
9.964659
 20
13.172522
 30
0.0
 10
9.832579
 20
13.215938
 30
0.0
 10
9.685606
 20
13.251897
 30
0.0
 10
9.532436
 20
13.280420
 30
0.0
 10
9.373067
 20
13.301506
 30
0.0
 10
9.207501
 20
13.315156
 30
0.0
 10
9.041925
 20
13.330032
 30
0.0
 10
8.882554
 20
13.344912
 30
0.0
 10
8.729386
 20
13.359797
 30
0.0
 10
8.582423
 20
13.374687
 30
0.0
 10
8.582423
 20
13.550801
 30
0.0
 10
8.582423
 20
13.726914
 30
0.0
 10
8.582423
 20
13.903027
 30
0.0
 10
8.582423
 20
14.079140
 30
0.0
 10
9.805294
 20
14.079140
 30
0.0
 10
11.028165
 20
14.079140
 30
0.0
 10
12.251036
 20
14.079140
 30
0.0
 10
13.473908
 20
14.079140
 30
0.0
 10
13.473908
 20
13.903027
 30
0.0
 10
13.473908
 20
13.726914
 30
0.0
 10
13.473908
 20
13.550801
 30
0.0
 10
13.473908
 20
13.374687
 30
0.0
  0
ENDSEC
  0
SECTION
  2
OBJECTS
  0
DICTIONARY
  5
C
330
0
100
AcDbDictionary
  3
ACAD_GROUP
350
D
  3
ACAD_MLINESTYLE
350
17
  0
DICTIONARY
  5
D
330
C
100
AcDbDictionary
  0
DICTIONARY
  5
1A
330
C
100
AcDbDictionary
  0
DICTIONARY
  5
17
330
C
100
AcDbDictionary
  3
STANDARD
350
18
  0
DICTIONARY
  5
19
330
C
100
AcDbDictionary
  0
ENDSEC
  0
EOF
