999
DXF created by Inkscape
  0
SECTION
  2
HEADER
  9
$ACADVER
  1
AC1014
  9
$HANDSEED
  5
FFFF
  9
$MEASUREMENT
 70
     1
  0
ENDSEC
  0
SECTION
  2
TABLES
  0
TABLE
  2
VPORT
  5
8
330
0
100
AcDbSymbolTable
 70
     4
  0
VPORT
  5
2E
330
8
100
AcDbSymbolTableRecord
100
AcDbViewportTableRecord
  2
*ACTIVE
 70
     0
 10
0.0
 20
0.0
 11
1.0
 21
1.0
 12
210.0
 22
148.5
 13
0.0
 23
0.0
 14
10.0
 24
10.0
 15
10.0
 25
10.0
 16
0.0
 26
0.0
 36
1.0
 17
0.0
 27
0.0
 37
0.0
 40
341.0
 41
1.24
 42
50.0
 43
0.0
 44
0.0
 50
0.0
 51
0.0
 71
     0
 72
   100
 73
     1
 74
     3
 75
     0
 76
     0
 77
     0
 78
     0
  0
ENDTAB
  0
TABLE
  2
LTYPE
  5
5
330
0
100
AcDbSymbolTable
 70
     1
  0
LTYPE
  5
14
330
5
100
AcDbSymbolTableRecord
100
AcDbLinetypeTableRecord
  2
BYBLOCK
 70
     0
  3

 72
    65
 73
     0
 40
0.0
  0
LTYPE
  5
15
330
5
100
AcDbSymbolTableRecord
100
AcDbLinetypeTableRecord
  2
BYLAYER
 70
     0
  3

 72
    65
 73
     0
 40
0.0
  0
LTYPE
  5
16
330
5
100
AcDbSymbolTableRecord
100
AcDbLinetypeTableRecord
  2
CONTINUOUS
 70
     0
  3
Solid line
 72
    65
 73
     0
 40
0.0
  0
ENDTAB
  0
TABLE
  2
LAYER
  5
2
100
AcDbSymbolTable
 70
2
  0
LAYER
  5
50
100
AcDbSymbolTableRecord
100
AcDbLayerTableRecord
  2
0
 70
0
  6
CONTINUOUS
  0
LAYER
  5
51
100
AcDbSymbolTableRecord
100
AcDbLayerTableRecord
  2
Layer_1
 70
0
  6
CONTINUOUS
  0
ENDTAB
  0
TABLE
  2
STYLE
  5
3
330
0
100
AcDbSymbolTable
 70
     1
  0
STYLE
  5
11
330
3
100
AcDbSymbolTableRecord
100
AcDbTextStyleTableRecord
  2
STANDARD
 70
     0
 40
0.0
 41
1.0
 50
0.0
 71
     0
 42
2.5
  3
txt
  4

  0
ENDTAB
  0
TABLE
  2
VIEW
  5
6
330
0
100
AcDbSymbolTable
 70
     0
  0
ENDTAB
  0
TABLE
  2
UCS
  5
7
330
0
100
AcDbSymbolTable
 70
     0
  0
ENDTAB
  0
TABLE
  2
APPID
  5
9
330
0
100
AcDbSymbolTable
 70
     2
  0
APPID
  5
12
330
9
100
AcDbSymbolTableRecord
100
AcDbRegAppTableRecord
  2
ACAD
 70
     0
  0
ENDTAB
  0
TABLE
  2
DIMSTYLE
  5
A
330
0
100
AcDbSymbolTable
 70
     1
  0
DIMSTYLE
105
27
330
A
100
AcDbSymbolTableRecord
100
AcDbDimStyleTableRecord
  2
ISO-25
 70
     0
  3

  4

  5

  6

  7

 40
1.0
 41
2.5
 42
0.625
 43
3.75
 44
1.25
 45
0.0
 46
0.0
 47
0.0
 48
0.0
140
2.5
141
2.5
142
0.0
143
0.03937007874016
144
1.0
145
0.0
146
1.0
147
0.625
 71
     0
 72
     0
 73
     0
 74
     0
 75
     0
 76
     0
 77
     1
 78
     8
170
     0
171
     3
172
     1
173
     0
174
     0
175
     0
176
     0
177
     0
178
     0
270
     2
271
     2
272
     2
273
     2
274
     3
340
11
275
     0
280
     0
281
     0
282
     0
283
     0
284
     8
285
     0
286
     0
287
     3
288
     0
  0
ENDTAB
  0
TABLE
  2
BLOCK_RECORD
  5
1
330
0
100
AcDbSymbolTable
 70
     1
  0
BLOCK_RECORD
  5
1F
330
1
100
AcDbSymbolTableRecord
100
AcDbBlockTableRecord
  2
*MODEL_SPACE
  0
BLOCK_RECORD
  5
1B
330
1
100
AcDbSymbolTableRecord
100
AcDbBlockTableRecord
  2
*PAPER_SPACE
  0
ENDTAB
  0
ENDSEC
  0
SECTION
  2
BLOCKS
  0
BLOCK
  5
20
330
1F
100
AcDbEntity
  8
0
100
AcDbBlockBegin
  2
*MODEL_SPACE
 70
     0
 10
0.0
 20
0.0
 30
0.0
  3
*MODEL_SPACE
  1

  0
ENDBLK
  5
21
330
1F
100
AcDbEntity
  8
0
100
AcDbBlockEnd
  0
BLOCK
  5
1C
330
1B
100
AcDbEntity
 67
     1
  8
0
100
AcDbBlockBegin
  2
*PAPER_SPACE
  1

  0
ENDBLK
  5
1D
330
1B
100
AcDbEntity
 67
     1
  8
0
100
AcDbBlockEnd
  0
ENDSEC
  0
SECTION
  2
ENTITIES
  0
LWPOLYLINE
  5
100
100
AcDbEntity
  8
Layer_1
 62
7
100
AcDbPolyline
 90
81
 70
0
 10
11.777265
 20
4.395390
 30
0.0
 10
11.660683
 20
3.296543
 30
0.0
 10
11.544101
 20
2.197695
 30
0.0
 10
11.427519
 20
1.098847
 30
0.0
 10
11.310937
 20
-0.000000
 30
0.0
 10
8.483202
 20
-0.000000
 30
0.0
 10
5.655468
 20
-0.000000
 30
0.0
 10
2.827733
 20
-0.000000
 30
0.0
 10
-0.000001
 20
-0.000000
 30
0.0
 10
-0.000001
 20
0.086816
 30
0.0
 10
-0.000001
 20
0.173632
 30
0.0
 10
-0.000001
 20
0.260449
 30
0.0
 10
-0.000001
 20
0.347265
 30
0.0
 10
2.215058
 20
3.584277
 30
0.0
 10
4.430116
 20
6.821289
 30
0.0
 10
6.645175
 20
10.058300
 30
0.0
 10
8.860233
 20
13.295312
 30
0.0
 10
8.049120
 20
13.295312
 30
0.0
 10
7.238007
 20
13.295312
 30
0.0
 10
6.426894
 20
13.295312
 30
0.0
 10
5.615781
 20
13.295312
 30
0.0
 10
5.344166
 20
13.294065
 30
0.0
 10
5.094878
 20
13.290342
 30
0.0
 10
4.867916
 20
13.284143
 30
0.0
 10
4.663281
 20
13.275469
 30
0.0
 10
4.478483
 20
13.263059
 30
0.0
 10
4.301128
 20
13.245693
 30
0.0
 10
4.131217
 20
13.223371
 30
0.0
 10
3.968749
 20
13.196094
 30
0.0
 10
3.630783
 20
13.080125
 30
0.0
 10
3.271735
 20
12.861221
 30
0.0
 10
2.891604
 20
12.539382
 30
0.0
 10
2.490390
 20
12.114609
 30
0.0
 10
2.108396
 20
11.631532
 30
0.0
 10
1.776013
 20
11.134816
 30
0.0
 10
1.493240
 20
10.624462
 30
0.0
 10
1.260077
 20
10.100469
 30
0.0
 10
1.086445
 20
10.100469
 30
0.0
 10
0.912812
 20
10.100469
 30
0.0
 10
0.739179
 20
10.100469
 30
0.0
 10
0.565546
 20
10.100469
 30
0.0
 10
0.672206
 20
11.095137
 30
0.0
 10
0.778866
 20
12.089805
 30
0.0
 10
0.885527
 20
13.084473
 30
0.0
 10
0.992187
 20
14.079141
 30
0.0
 10
3.628925
 20
14.079141
 30
0.0
 10
6.265663
 20
14.079141
 30
0.0
 10
8.902402
 20
14.079141
 30
0.0
 10
11.539140
 20
14.079141
 30
0.0
 10
11.539140
 20
13.992324
 30
0.0
 10
11.539140
 20
13.905508
 30
0.0
 10
11.539140
 20
13.818691
 30
0.0
 10
11.539140
 20
13.731875
 30
0.0
 10
9.324081
 20
10.494863
 30
0.0
 10
7.109023
 20
7.257852
 30
0.0
 10
4.893964
 20
4.020840
 30
0.0
 10
2.678906
 20
0.783828
 30
0.0
 10
3.514823
 20
0.783828
 30
0.0
 10
4.350741
 20
0.783828
 30
0.0
 10
5.186659
 20
0.783828
 30
0.0
 10
6.022577
 20
0.783828
 30
0.0
 10
6.451075
 20
0.791270
 30
0.0
 10
6.893217
 20
0.813594
 30
0.0
 10
7.349004
 20
0.850801
 30
0.0
 10
7.818437
 20
0.902892
 30
0.0
 10
8.253134
 20
0.972964
 30
0.0
 10
8.604739
 20
1.064121
 30
0.0
 10
8.873251
 20
1.176363
 30
0.0
 10
9.058671
 20
1.309688
 30
0.0
 10
9.375545
 20
1.634629
 30
0.0
 10
9.681261
 20
1.994296
 30
0.0
 10
9.975819
 20
2.388691
 30
0.0
 10
10.259218
 20
2.817813
 30
0.0
 10
10.519041
 20
3.251273
 30
0.0
 10
10.742901
 20
3.658690
 30
0.0
 10
10.930799
 20
4.040062
 30
0.0
 10
11.082733
 20
4.395392
 30
0.0
 10
11.256366
 20
4.395392
 30
0.0
 10
11.429999
 20
4.395392
 30
0.0
 10
11.603632
 20
4.395392
 30
0.0
 10
11.777265
 20
4.395392
 30
0.0
  0
ENDSEC
  0
SECTION
  2
OBJECTS
  0
DICTIONARY
  5
C
330
0
100
AcDbDictionary
  3
ACAD_GROUP
350
D
  3
ACAD_MLINESTYLE
350
17
  0
DICTIONARY
  5
D
330
C
100
AcDbDictionary
  0
DICTIONARY
  5
1A
330
C
100
AcDbDictionary
  0
DICTIONARY
  5
17
330
C
100
AcDbDictionary
  3
STANDARD
350
18
  0
DICTIONARY
  5
19
330
C
100
AcDbDictionary
  0
ENDSEC
  0
EOF
